<svg width="20" height="18" viewBox="0 0 20 18" fill="none" xmlns="http://www.w3.org/2000/svg">
<g clip-path="url(#clip0_139_6527)">
<path d="M10.0119 15.9597C7.01369 15.9597 4.01627 15.9597 1.01806 15.9597C0.714934 15.9597 0.574786 16.0984 0.574786 16.3977C0.574786 16.4752 0.578723 16.5527 0.573999 16.6295C0.5677 16.7225 0.558252 16.8155 0.54093 16.9062C0.476368 17.2372 0.159068 17.5023 -0.220432 17.4984C-0.601507 17.4946 -0.917233 17.2116 -0.974709 16.8481C-0.988094 16.7628 -0.99518 16.6752 -0.99518 16.5891C-0.995967 14.8279 -1.00778 13.0659 -0.991243 11.3046C-0.981795 10.2783 -0.602295 9.38527 0.125212 8.64186C0.566913 8.19069 1.09207 7.86976 1.69282 7.66511C2.16522 7.50465 2.65338 7.45581 3.15098 7.45581C7.76246 7.45736 12.3739 7.45348 16.9854 7.45891C18.3365 7.46046 19.4309 7.9969 20.2419 9.06356C20.6403 9.58837 20.8781 10.1845 20.9592 10.8357C20.9867 11.055 20.9985 11.2783 20.9993 11.5C21.0025 13.2101 21.0017 14.9202 21.0009 16.6302C21.0009 16.8977 20.934 17.1411 20.7104 17.3178C20.4741 17.5046 20.2104 17.5535 19.9293 17.4395C19.66 17.3295 19.49 17.1271 19.4514 16.838C19.4317 16.6922 19.4341 16.5426 19.4301 16.3953C19.4238 16.1574 19.3238 16.0139 19.1239 15.9698C19.0798 15.9597 19.0333 15.9605 18.9876 15.9605C15.9965 15.9605 13.0054 15.9605 10.0135 15.9605L10.0119 15.9597Z" fill="white"/>
<path d="M9.90246 0.5C11.8472 0.5 13.7912 0.5 15.7351 0.5C16.3862 0.5 16.9949 0.643411 17.52 1.03953C18.1956 1.54884 18.59 2.21938 18.6231 3.06124C18.6514 3.77519 18.6388 4.4907 18.642 5.20543C18.6444 5.66589 18.642 6.12636 18.642 6.58682C18.642 6.62791 18.6396 6.67132 18.6286 6.71085C18.5948 6.83566 18.5263 6.88527 18.3971 6.86124C18.2562 6.83488 18.12 6.77829 17.979 6.76279C17.6476 6.72713 17.3153 6.70233 16.9823 6.68527C16.7602 6.67364 16.6917 6.63411 16.6602 6.41938C16.5595 5.73876 15.9194 5.12636 15.1005 5.13566C14.1872 5.14574 13.2739 5.13798 12.3613 5.13798C11.6819 5.13798 11.1016 5.53643 10.8709 6.16434C10.8378 6.25426 10.8252 6.35194 10.8079 6.44651C10.7756 6.61628 10.7119 6.67984 10.5402 6.68217C10.1804 6.68605 9.81979 6.68605 9.45997 6.68217C9.29463 6.68062 9.22928 6.61628 9.19936 6.42791C9.15763 6.16357 9.0537 5.92791 8.88364 5.72093C8.57579 5.34574 8.17739 5.14186 7.68609 5.13953C6.74363 5.13488 5.80118 5.13721 4.85794 5.13876C4.06587 5.13953 3.44623 5.74884 3.34545 6.41783C3.31317 6.63411 3.24782 6.67209 3.02579 6.68605C2.6581 6.71008 2.29041 6.74419 1.92351 6.78295C1.81092 6.79457 1.70305 6.84264 1.59125 6.86124C1.47078 6.88062 1.41488 6.84031 1.38103 6.72403C1.36764 6.67829 1.36134 6.62946 1.36134 6.5814C1.36055 5.47674 1.3456 4.37209 1.36449 3.26744C1.38418 2.11163 1.92666 1.26202 2.988 0.748062C3.40844 0.545736 3.86431 0.5 4.3257 0.5C6.18462 0.5 8.04354 0.5 9.90246 0.5Z" fill="white"/>
</g>
<defs>
<clipPath id="clip0_139_6527">
<rect width="22" height="17" fill="white" transform="translate(-1 0.5)"/>
</clipPath>
</defs>
</svg>
